<svg xmlns="http://www.w3.org/2000/svg" viewBox="5 5 90 90" class="iconLeft">
  <defs>
    <linearGradient
      gradientTransform="rotate(25)"
      id="13991a67-e09e-44ad-b355-60d9f4c30d24"
      x1="0%"
      y1="0%"
      x2="100%"
      y2="0%"
    >
      <stop offset="0%" stop-color="#37C060" stop-opacity="1"></stop>
      <stop offset="100%" stop-color="#10B4F3" stop-opacity="1"></stop>
    </linearGradient>
  </defs>
  <g
    id="e965b392-569f-473f-92a4-5b91e8c21e7f"
    stroke="none"
    fill="url(#13991a67-e09e-44ad-b355-60d9f4c30d24)"
  >
    <path
      d="M88.752 59.913a40.027 40.027 0 0 0 1.228-9.28l-5.952 1.95 2.652 8.269 2-.655.072-.284zM53.938 71.351l-2.652-8.269 22.465-7.205 2.652 8.27zM65.057 49.731l-2.652-8.269 22.465-7.205 2.652 8.269zM32.319 60.232l-2.653-8.269 22.465-7.205 2.652 8.27zM43.437 38.612l-2.652-8.27 22.465-7.204 2.652 8.269zM26.389 45.19l7.205 22.464-8.269 2.652-7.205-22.464zM59.129 34.688l7.205 22.464-8.27 2.652L50.86 37.34zM36.443 48.685L29.38 26.66l8.27-2.652 7.063 22.025zM46.943 81.424l-7.205-22.465 8.269-2.652 7.205 22.465zM65.371 7.692a44.7 44.7 0 0 0-13.275-2.653l2.888 4.208a40.694 40.694 0 0 1 11.615 3.205l-1.228-4.76zM31.701 86.719a41.23 41.23 0 0 1-9.502-6.56l-.466 4.806a45.038 45.038 0 0 0 11.234 6.663l-1.266-4.909zM42.563 9.621A41.064 41.064 0 0 1 50 8.933c.759 0 1.511.024 2.26.065l-2.745-4a44.904 44.904 0 0 0-11.252 1.55l4.3 3.073zM28.819 14.834a40.824 40.824 0 0 1 10.963-4.612l-4.06-2.9a44.87 44.87 0 0 0-11.925 6.115l5.022 1.397zM45.173 90.745A40.735 40.735 0 0 1 34.17 87.86l1.205 4.672a44.716 44.716 0 0 0 12.674 2.404l-2.876-4.191zM88.977 62.849a40.944 40.944 0 0 1-5.151 10.364l4.923-.384A44.695 44.695 0 0 0 93.701 60.7l-4.724 2.149zM89.772 60.174l4.474-2.036c.487-2.645.754-5.367.754-8.152 0-1.242-.064-2.469-.164-3.686l-3.785 3.714a40.92 40.92 0 0 1-1.279 10.16zM80.75 22.829a41.164 41.164 0 0 1 6.565 10.073l2.154-4.508a45.279 45.279 0 0 0-8.217-10.741l-.502 5.176zM90.674 30.756l-2.268 4.747a40.763 40.763 0 0 1 2.539 11.667l3.599-3.532a44.612 44.612 0 0 0-3.87-12.882zM20.269 78.251a41.254 41.254 0 0 1-6.774-9.519l-2.088 4.369A45.326 45.326 0 0 0 19.779 83.3l.49-5.049zM11.213 27.21a44.706 44.706 0 0 0-5.02 12.519l4.665-2.122a40.919 40.919 0 0 1 5.268-10.78l-4.913.383zM82.162 75.454a41.386 41.386 0 0 1-8.376 7.96l4.768 1.326a45.391 45.391 0 0 0 8.802-9.691l-5.194.405zM12.331 66.286a40.727 40.727 0 0 1-3.084-11.429l-3.47 3.406a44.631 44.631 0 0 0 4.373 12.59l2.181-4.567zM58.179 90.218a41.059 41.059 0 0 1-10.288.767l2.735 3.985a44.83 44.83 0 0 0 11.776-1.736l-4.223-3.016zM8.947 49.986c0-3.353.413-6.61 1.175-9.731l-4.448 2.024A45.008 45.008 0 0 0 5 49.986c0 1.938.137 3.844.376 5.719l3.629-3.561a40.643 40.643 0 0 1-.058-2.158zM79.308 15.882a45.06 45.06 0 0 0-11.512-7.219l1.288 4.993a41.258 41.258 0 0 1 9.748 7.141l.476-4.915zM71.474 84.957a40.81 40.81 0 0 1-10.59 4.606l4.024 2.874a44.945 44.945 0 0 0 11.562-6.091l-4.996-1.389zM17.785 24.585a41.396 41.396 0 0 1 8.695-8.217l-4.787-1.331a45.353 45.353 0 0 0-9.092 9.952l5.184-.404zM52.333 10.057l2.225 6.936L66.23 13.44l-.058-.026c-7.751-3.165-13.839-3.357-13.839-3.357zM51.212 10.008A35.968 35.968 0 0 0 50 9.986c-2.389 0-4.827.226-7.246.67l-.428.079 5.238 16.33 8.269-2.652-4.621-14.405zM34.577 86.89a39.284 39.284 0 0 0 5.796 1.901l-3.484-10.863-8.269 2.652 1.268 3.954c.748.436 4.689 2.356 4.689 2.356zM45.296 89.7l2.649.234c.681.035 1.372.052 2.055.052.793 0 1.586-.031 2.378-.078l12.908-4.14-2.652-8.269-22.466 7.206 1.397 4.355c1.231.263 2.472.492 3.731.64zM70.922 84.061s2.951-2.041 3.302-2.309l-4.595-14.325-8.269 2.652 5.221 16.278a39.798 39.798 0 0 0 4.341-2.296zM41.014 66.379l-22.466 7.206.569 1.775c.612.743 3.796 4.026 3.796 4.026.526.485 1.076.942 1.627 1.397l19.126-6.135-2.652-8.269zM14.431 68.249a39.957 39.957 0 0 0 2.761 4.556l-1.92-5.986-1.353.436.512.994zM13.296 65.867l.184.424 8.565-2.762-2.652-8.269-8.558 2.759a39.547 39.547 0 0 0 2.461 7.848zM10.056 52.089l.236 2.643c.089.753.218 1.499.349 2.243l1.336-.431-1.965-6.126c.006.551.014 1.106.044 1.671zM30.512 33.639l-19.194 6.157-.173.709a40.143 40.143 0 0 0-1.042 6.754l.595 1.856 22.466-7.206-2.652-8.27zM41.94 12.406L27.243 17.12l-.158.111a40.277 40.277 0 0 0-6.535 5.735l1.577 4.915 22.466-7.206-2.653-8.269zM18.326 25.599l-1.331 1.823a39.97 39.97 0 0 0-3.446 6.171l1.274 3.973 8.269-2.652-3.481-10.852c-.334.391-1.285 1.537-1.285 1.537zM68.592 14.586l-.412-.217-.101-.392-6.068 1.847 7.172 22.36 8.269-2.652-6.231-19.426a39.53 39.53 0 0 0-2.629-1.52zM78.092 21.545a40.27 40.27 0 0 0-2.547-2.29l-2.019.588 2.652 8.269 6.039-1.759c-.713-.97-4.125-4.808-4.125-4.808zM87.263 35.454l-.904-2.112a40.049 40.049 0 0 0-1.733-3.304l5.15 16.055c-.342-3.508-2.513-10.639-2.513-10.639zM86.974 65.216l-6.226-19.411-8.269 2.652 7.197 22.437 5.395-1.754a39.74 39.74 0 0 0 1.903-3.924zM84.312 70.494l-11.404 3.708 2.203 6.867a40.272 40.272 0 0 0 6.227-6.271c0 .002 2.543-3.585 2.974-4.304z"
    ></path>
  </g>
</svg>
